<?xml version="1.0" encoding="UTF-8" standalone="no"?> <svg height="649pt" viewBox="-20 -29 649.34821 649" fill="#3DB0F0" width="649pt" xmlns="http://www.w3.org/2000/svg"><path d="m451.492188 276.03125c-21.933594-.023438-43.617188 4.566406-63.65625 13.46875v-145.171875c0-6.203125-5.03125-11.226563-11.230469-11.226563h-14.28125v-34.269531c0-6.199219-5.027344-11.226562-11.226563-11.226562h-25.085937v-13.449219c0-6.203125-5.027344-11.226562-11.226563-11.226562-6.203125 0-11.226562 5.023437-11.226562 11.226562v13.449219h-25.769532c-6.195312 0-11.226562 5.027343-11.226562 11.226562v34.269531h-14.992188v-44.488281c0-6.203125-5.027343-11.226562-11.226562-11.226562h-28.859375v-34.890625c0-6.199219-5.027344-11.226563-11.226563-11.226563h-64.542968v-20.535156c0-6.203125-5.023438-11.226563-11.226563-11.226563-6.199219 0-11.230469 5.023438-11.230469 11.226563v20.535156h-61.867187c-6.203125 0-11.226563 5.027344-11.226563 11.226563v34.890625h-28.855468c-6.195313 0-11.2265628 5.023437-11.2265628 11.226562v412.125c0 6.199219 5.0312498 11.226563 11.2265628 11.226563h303.90625c38.152344 66.148437 118.292968 95.351562 190.058594 69.253906 71.761718-26.097656 114.425781-99.957031 101.171874-175.164062-13.25-75.203126-78.589843-130.027344-154.953124-130.023438zm-388.875-222.308594h126.414062v23.664063h-126.414062zm97.789062 435.789063h-24.691406v-68.746094h24.691406zm-47.148438 0h-22.011718v-68.746094h22.011718zm115.851563 0h-46.25v-79.972657c0-6.203124-5.03125-11.226562-11.226563-11.226562h-91.617187c-6.195313 0-11.226563 5.023438-11.226563 11.226562v79.972657h-46.25v-389.671875h206.578126zm59.910156-379.453125h50.851563v23.042968h-50.851563zm-37.449219 379.453125v-333.957031h113.816407v146.203124c-8.121094 5.324219-15.730469 11.390626-22.742188 18.109376-1.097656-.347657-2.246093-.53125-3.402343-.53125h-60.960938c-6.203125 0-11.226562 5.03125-11.226562 11.230468 0 6.203125 5.023437 11.226563 11.226562 11.226563h45.339844c-6.558594 9.136719-12.121094 18.945312-16.589844 29.265625h-28.75c-6.203125 0-11.226562 5.027344-11.226562 11.226562 0 6.199219 5.023437 11.226563 11.226562 11.226563h20.988281c-2.855469 10.90625-4.527343 22.082031-4.980469 33.351562h-16.007812c-6.203125 0-11.226562 5.023438-11.226562 11.226563 0 6.195312 5.023437 11.226562 11.226562 11.226562h16.667969c1.386719 13.761719 4.605469 27.277344 9.554687 40.195313zm199.925782 78.757812c-74.5.007813-134.898438-60.386719-134.898438-134.882812-.003906-74.5 60.390625-134.898438 134.890625-134.898438s134.894531 60.390625 134.894531 134.894531c-.082031 74.460938-60.429687 134.804688-134.890624 134.886719zm0 0"/><path d="m57.796875 217.945312h136.097656c6.199219 0 11.226563-5.027343 11.226563-11.230468 0-6.195313-5.027344-11.226563-11.226563-11.226563h-136.097656c-6.199219 0-11.226563 5.03125-11.226563 11.226563 0 6.203125 5.027344 11.230468 11.226563 11.230468zm0 0"/><path d="m57.796875 280.550781h136.097656c6.199219 0 11.226563-5.023437 11.226563-11.226562 0-6.199219-5.027344-11.230469-11.226563-11.230469h-136.097656c-6.199219 0-11.226563 5.03125-11.226563 11.230469 0 6.203125 5.027344 11.226562 11.226563 11.226562zm0 0"/><path d="m57.796875 343.15625h136.097656c6.199219 0 11.226563-5.023438 11.226563-11.226562 0-6.199219-5.027344-11.226563-11.226563-11.226563h-136.097656c-6.199219 0-11.226563 5.027344-11.226563 11.226563 0 6.203124 5.027344 11.226562 11.226563 11.226562zm0 0"/><path d="m57.796875 155.335938h136.097656c6.199219 0 11.226563-5.023438 11.226563-11.226563 0-6.199219-5.027344-11.226563-11.226563-11.226563h-136.097656c-6.199219 0-11.226563 5.027344-11.226563 11.226563 0 6.203125 5.027344 11.226563 11.226563 11.226563zm0 0"/><path d="m278.28125 285.996094h58.523438c6.199218 0 11.226562-5.027344 11.226562-11.226563 0-6.203125-5.027344-11.226562-11.226562-11.226562h-58.523438c-6.203125 0-11.226562 5.023437-11.226562 11.226562 0 6.199219 5.023437 11.226563 11.226562 11.226563zm0 0"/><path d="m278.28125 231.554688h58.523438c6.199218 0 11.226562-5.023438 11.226562-11.226563 0-6.199219-5.027344-11.230469-11.226562-11.230469h-58.523438c-6.203125 0-11.226562 5.03125-11.226562 11.230469 0 6.203125 5.023437 11.226563 11.226562 11.226563zm0 0"/><path d="m511.496094 354.152344c-15.898438-15.941406-37.484375-24.910156-60.003906-24.910156-22.515626 0-44.101563 8.96875-60.003907 24.910156-15.265625 15.355468-24.460937 35.714844-25.882812 57.320312-.765625 11.878906.976562 23.789063 5.109375 34.953125 4.328125 11.539063 10.949218 22.074219 19.472656 30.96875l53.125 56.582031c2.125 2.261719 5.085938 3.542969 8.183594 3.542969 3.101562 0 6.0625-1.28125 8.1875-3.542969l53.121094-56.582031c8.519531-8.894531 15.144531-19.429687 19.464843-30.964843 4.136719-11.164063 5.878907-23.070313 5.113281-34.953126-1.417968-21.605468-10.621093-41.96875-25.886718-57.324218zm-.320313 84.578125c-3.289062 8.683593-8.304687 16.609375-14.746093 23.292969l-44.9375 47.867187-44.9375-47.867187c-6.441407-6.683594-11.460938-14.609376-14.75-23.292969-3.054688-8.222657-4.351563-17-3.800782-25.757813 1.0625-16.195312 7.949219-31.457031 19.390625-42.96875 11.683594-11.71875 27.550781-18.300781 44.097657-18.300781 16.542968 0 32.414062 6.582031 44.09375 18.300781 11.441406 11.511719 18.328124 26.773438 19.390624 42.96875.550782 8.757813-.746093 17.535156-3.800781 25.757813zm0 0"/><path d="m451.492188 367.441406c-23.726563 0-43.027344 19.6875-43.027344 43.878906 0 24.199219 19.300781 43.882813 43.027344 43.882813 23.722656 0 43.023437-19.683594 43.023437-43.882813 0-24.191406-19.300781-43.878906-43.023437-43.878906zm0 65.304688c-11.34375 0-20.574219-9.609375-20.574219-21.425782 0-11.808593 9.230469-21.425781 20.574219-21.425781 11.339843 0 20.570312 9.617188 20.570312 21.425781 0 11.8125-9.226562 21.425782-20.570312 21.425782zm0 0"/></svg>