<svg xmlns="http://www.w3.org/2000/svg" viewBox="0 0 64 64"><path fill="#78b9eb" d="M61,36V57a4,4,0,0,1-8,0V36Z"/><path fill="#78b9eb" d="M53,57V29H20V58a3,3,0,0,0,3,3H57A4,4,0,0,1,53,57ZM34,56H24V48H34ZM49,36H24V32H49Z"/><rect width="20" height="6" x="22" y="3" fill="#78b9eb"/><path fill="#78b9eb" d="M61,14v9H51V21H45v2H19V21H13v2H3V14a2.006,2.006,0,0,1,2-2H59A2.006,2.006,0,0,1,61,14Z"/><path fill="#006df0" d="M62,23V14a3.009,3.009,0,0,0-3-3H47V6a1,1,0,0,0-1-1H43V3a1,1,0,0,0-1-1H22a1,1,0,0,0-1,1V5H18a1,1,0,0,0-1,1v5H5a3.009,3.009,0,0,0-3,3v9a1,1,0,0,0,1,1V49a3.009,3.009,0,0,0,3,3H19v6a4,4,0,0,0,4,4H57a5,5,0,0,0,5-5V36a1,1,0,0,0-1-1V24A1,1,0,0,0,62,23ZM23,4H41V8H23ZM19,7h2V9a1,1,0,0,0,1,1H42a1,1,0,0,0,1-1V7h2v4H19Zm1,21a1,1,0,0,0-1,1V50H6a1,1,0,0,1-1-1V24h7v3a1,1,0,0,0,1,1h6a1,1,0,0,0,1-1V24H44v3a1,1,0,0,0,1,1Zm-6-2V22h4v4Zm9,34a2.006,2.006,0,0,1-2-2V30H52V57a4.924,4.924,0,0,0,1.03,3ZM46,26V22h4v4Zm7,2H51a1,1,0,0,0,1-1V24h7V35H54V29A1,1,0,0,0,53,28Zm7,29a3,3,0,0,1-6,0V37h2V48h2V37h2Zm0-35H52V21a1,1,0,0,0-1-1H45a1,1,0,0,0-1,1v1H20V21a1,1,0,0,0-1-1H13a1,1,0,0,0-1,1v1H4V14a1,1,0,0,1,1-1H59a1,1,0,0,1,1,1Z"/><rect width="2" height="2" x="56" y="50" fill="#006df0"/><path fill="#006df0" d="M49,31H24a1,1,0,0,0-1,1v4a1,1,0,0,0,1,1H49a1,1,0,0,0,1-1V32A1,1,0,0,0,49,31Zm-1,4H25V33H48Z"/><rect width="10" height="2" x="23" y="39" fill="#006df0"/><rect width="15" height="2" x="35" y="39" fill="#006df0"/><rect width="4" height="2" x="23" y="43" fill="#006df0"/><rect width="21" height="2" x="29" y="43" fill="#006df0"/><path fill="#006df0" d="M34,47H24a1,1,0,0,0-1,1v8a1,1,0,0,0,1,1H34a1,1,0,0,0,1-1V48A1,1,0,0,0,34,47Zm-1,8H25V49h8Z"/><rect width="13" height="2" x="37" y="47" fill="#006df0"/><rect width="4" height="2" x="37" y="51" fill="#006df0"/><rect width="7" height="2" x="43" y="51" fill="#006df0"/></svg>