<?xml version="1.0" encoding="UTF-8" standalone="no"?>
<svg
   width="24"
   height="24"
   viewBox="0 0 24 24"
   fill="none"
   version="1.1"
   id="svg4"
   sodipodi:docname="edit_icon.svg"
   inkscape:version="1.1 (1:1.1+202105261517+ce6663b3b7)"
   xmlns:inkscape="http://www.inkscape.org/namespaces/inkscape"
   xmlns:sodipodi="http://sodipodi.sourceforge.net/DTD/sodipodi-0.dtd"
   xmlns="http://www.w3.org/2000/svg"
   xmlns:svg="http://www.w3.org/2000/svg">
  <defs
     id="defs8" />
  <sodipodi:namedview
     id="namedview6"
     pagecolor="#ffffff"
     bordercolor="#666666"
     borderopacity="1.0"
     inkscape:pageshadow="2"
     inkscape:pageopacity="0.0"
     inkscape:pagecheckerboard="0"
     showgrid="false"
     inkscape:zoom="26.166667"
     inkscape:cx="11.980892"
     inkscape:cy="12.019108"
     inkscape:window-width="1536"
     inkscape:window-height="800"
     inkscape:window-x="0"
     inkscape:window-y="27"
     inkscape:window-maximized="1"
     inkscape:current-layer="svg4" />
  <path
     fill-rule="evenodd"
     clip-rule="evenodd"
     d="M15.8787 1.70705C17.0503 0.535478 18.9497 0.535474 20.1213 1.70705L22.2929 3.87862C23.4645 5.05019 23.4645 6.94969 22.2929 8.12126L9.41421 20.9999H18C18.5523 20.9999 19 21.4477 19 21.9999C19 22.5522 18.5523 22.9999 18 22.9999H3C1.89543 22.9999 1 22.1045 1 20.9999V17.4142C1 16.8837 1.21071 16.375 1.58579 15.9999L15.8787 1.70705ZM6.58579 20.9999L17.5858 9.99994L14 6.41416L3 17.4142L3 20.9999H6.58579ZM15.4142 4.99994L19 8.58573L20.8787 6.70705C21.2692 6.31653 21.2692 5.68336 20.8787 5.29284L18.7071 3.12126C18.3166 2.73074 17.6834 2.73074 17.2929 3.12126L15.4142 4.99994Z"
     fill="#293644"
     id="path2"
     style="fill:#1fc043;fill-opacity:1" />
</svg>
