<?xml version="1.0" encoding="UTF-8" standalone="no"?>
<svg
   xmlns:dc="http://purl.org/dc/elements/1.1/"
   xmlns:cc="http://creativecommons.org/ns#"
   xmlns:rdf="http://www.w3.org/1999/02/22-rdf-syntax-ns#"
   xmlns:svg="http://www.w3.org/2000/svg"
   xmlns="http://www.w3.org/2000/svg"
   xmlns:sodipodi="http://sodipodi.sourceforge.net/DTD/sodipodi-0.dtd"
   xmlns:inkscape="http://www.inkscape.org/namespaces/inkscape"
   width="2500"
   height="621"
   viewBox="0 0 495.049 123.004"
   version="1.1"
   id="svg4"
   sodipodi:docname="fitbit_logo_text.svg"
   inkscape:version="1.0.2 (e86c870879, 2021-01-15)">
  <metadata
     id="metadata10">
    <rdf:RDF>
      <cc:Work
         rdf:about="">
        <dc:format>image/svg+xml</dc:format>
        <dc:type
           rdf:resource="http://purl.org/dc/dcmitype/StillImage" />
      </cc:Work>
    </rdf:RDF>
  </metadata>
  <defs
     id="defs8" />
  <sodipodi:namedview
     pagecolor="#ffffff"
     bordercolor="#666666"
     borderopacity="1"
     objecttolerance="10"
     gridtolerance="10"
     guidetolerance="10"
     inkscape:pageopacity="0"
     inkscape:pageshadow="2"
     inkscape:window-width="1536"
     inkscape:window-height="800"
     id="namedview6"
     showgrid="false"
     inkscape:zoom="0.5036"
     inkscape:cx="1250"
     inkscape:cy="310.5"
     inkscape:window-x="0"
     inkscape:window-y="27"
     inkscape:window-maximized="1"
     inkscape:current-layer="svg4" />
  <path
     d="M183.857 43.463H160.62V32.115c.1-13.133 3.596-18.012 7.44-20.516 3.965-2.594 10.004-2.83 15.797-2.777a4.405 4.405 0 004.406-4.416A4.405 4.405 0 00183.857 0c-5.766.047-13.551-.197-20.514 4.143-7.082 4.43-11.637 13.406-11.545 27.973v11.348h-9.08c-2.441 0-4.42 1.98-4.42 4.406a4.42 4.42 0 004.42 4.414h9.08v66.123a4.423 4.423 0 004.414 4.42 4.424 4.424 0 004.416-4.42c-.002-42.283-.01-45.197-.01-66.123h23.237a4.425 4.425 0 004.42-4.414c.002-2.427-1.984-4.407-4.418-4.407zM287.77 114.012v-.02c-7.438.066-13.436-.381-16.84-2.943-3.369-2.395-6.361-7.631-6.4-20.975-.006-18.98-.01-27.756-.01-37.672h23.246c2.437 0 4.414-1.979 4.414-4.414s-1.979-4.404-4.414-4.404H264.52c0-8.787.01-20.129.01-39.17A4.42 4.42 0 00260.11 0a4.399 4.399 0 00-4.396 4.414v39.17h-9.092a4.408 4.408 0 000 8.818h9.092v37.672c-.051 14.363 3.354 23.293 10.076 28.145 6.705 4.674 14.541 4.545 21.979 4.607a4.414 4.414 0 004.408-4.42 4.396 4.396 0 00-4.407-4.394zM490.645 114.021V114c-9.521.065-15.359-.974-18.172-3.582-2.9-2.396-5.088-7.944-5.072-20.158V52.401h23.24c2.447 0 4.408-1.979 4.408-4.414s-1.961-4.404-4.408-4.404H467.4V4.405A4.393 4.393 0 00463 .003a4.408 4.408 0 00-4.418 4.402v39.178h-9.086a4.41 4.41 0 00-4.418 4.404 4.417 4.417 0 004.418 4.414h9.086V90.26c.027 12.896 2.023 21.423 8.121 26.822 6.185 5.213 14.17 5.674 23.941 5.742a4.409 4.409 0 004.404-4.406 4.394 4.394 0 00-4.403-4.397zM210.594 118.406V47.875c0-2.432 1.979-4.412 4.402-4.412a4.419 4.419 0 014.416 4.412v70.531c0 2.428-1.98 4.42-4.416 4.42-2.423 0-4.402-1.992-4.402-4.42zM415.342 118.406V47.875c0-2.432 1.957-4.412 4.391-4.412a4.415 4.415 0 014.418 4.412v70.531a4.424 4.424 0 01-4.418 4.42c-2.434 0-4.391-1.992-4.391-4.42zM354.225 43.168c-12.578.008-23.791 5.836-31.104 14.926V4.414a4.41 4.41 0 00-8.82 0V85.75c0 .312.115.588.182.885 1.795 20.385 18.883 36.369 39.744 36.369 22.043 0 39.906-17.859 39.906-39.908-.002-22.051-17.865-39.918-39.908-39.928zm0 71.016c-17.182-.033-31.082-13.91-31.104-31.088.022-17.19 13.924-31.072 31.104-31.102 17.174.029 31.059 13.91 31.086 31.102-.029 17.177-13.913 31.054-31.086 31.088zM208.771 25.764a8.873 8.873 0 01-2.582-6.236c0-2.324.938-4.594 2.582-6.236A8.841 8.841 0 01215 10.71c2.321 0 4.592.938 6.233 2.582a8.86 8.86 0 012.584 6.236 8.87 8.87 0 01-2.584 6.236A8.9 8.9 0 01215 28.35a8.885 8.885 0 01-6.229-2.586zM413.504 25.764a8.873 8.873 0 01-2.586-6.236 8.86 8.86 0 012.586-6.236 8.872 8.872 0 016.24-2.582c2.317 0 4.583.938 6.231 2.582a8.902 8.902 0 012.578 6.236 8.91 8.91 0 01-2.578 6.236c-1.648 1.637-3.914 2.586-6.231 2.586a8.913 8.913 0 01-6.24-2.586zM44.148 109.641a7.144 7.144 0 01-2.082-5.041c0-1.875.748-3.707 2.082-5.033a7.18 7.18 0 015.041-2.088c1.875 0 3.711.761 5.039 2.088a7.153 7.153 0 012.084 5.033 7.171 7.171 0 01-2.084 5.041 7.204 7.204 0 01-5.039 2.092 7.213 7.213 0 01-5.041-2.092zM44.148 67.574a7.196 7.196 0 01-2.082-5.041c0-1.879.756-3.713 2.082-5.041a7.178 7.178 0 015.035-2.084c1.881 0 3.709.76 5.045 2.084a7.168 7.168 0 012.084 5.041 7.19 7.19 0 01-2.084 5.041 7.212 7.212 0 01-5.045 2.082 7.188 7.188 0 01-5.035-2.082zM44.15 25.506a7.215 7.215 0 01-2.082-5.035c0-1.883.763-3.717 2.082-5.049a7.168 7.168 0 015.035-2.072 7.17 7.17 0 015.039 2.072 7.182 7.182 0 012.088 5.049 7.174 7.174 0 01-2.088 5.035 7.18 7.18 0 01-5.039 2.082c-1.874 0-3.71-.76-5.035-2.082zM43.963 46.34a7.11 7.11 0 01-1.887-5.104 7.14 7.14 0 012.274-4.967 7.165 7.165 0 015.117-1.879 7.119 7.119 0 014.943 2.27c1.272 1.385 1.977 3.236 1.899 5.125a7.185 7.185 0 01-2.285 4.949 7.202 7.202 0 01-5.11 1.895 7.17 7.17 0 01-4.951-2.289zM44.15 88.607a7.209 7.209 0 01-2.084-5.041c0-1.879.763-3.711 2.084-5.039a7.174 7.174 0 015.039-2.086c1.875 0 3.711.76 5.035 2.086a7.167 7.167 0 012.088 5.039c0 1.877-.76 3.709-2.088 5.041a7.208 7.208 0 01-5.035 2.082 7.212 7.212 0 01-5.039-2.082zM65.184 67.574a7.217 7.217 0 01-2.086-5.041c0-1.879.764-3.713 2.086-5.041a7.184 7.184 0 015.039-2.084 7.21 7.21 0 015.041 2.084 7.178 7.178 0 012.086 5.041 7.2 7.2 0 01-2.086 5.041 7.217 7.217 0 01-5.041 2.082 7.19 7.19 0 01-5.039-2.082zM65.184 46.537a7.17 7.17 0 01-2.08-5.031c0-1.885.758-3.711 2.08-5.047a7.212 7.212 0 015.039-2.072c1.875 0 3.709.754 5.041 2.072a7.196 7.196 0 012.086 5.047c0 1.871-.76 3.709-2.086 5.031a7.211 7.211 0 01-5.041 2.096 7.21 7.21 0 01-5.039-2.096zM65.184 88.607a7.189 7.189 0 01-2.086-5.041c0-1.879.76-3.711 2.086-5.039a7.177 7.177 0 015.039-2.086c1.881 0 3.713.76 5.041 2.086a7.174 7.174 0 012.086 5.039c0 1.877-.76 3.709-2.086 5.041a7.218 7.218 0 01-5.041 2.082 7.212 7.212 0 01-5.039-2.082zM86.217 67.574a7.196 7.196 0 01-2.082-5.041c0-1.879.756-3.713 2.082-5.041a7.187 7.187 0 015.039-2.084c1.877 0 3.713.76 5.041 2.084a7.186 7.186 0 012.076 5.041 7.207 7.207 0 01-2.076 5.041 7.195 7.195 0 01-5.041 2.082 7.194 7.194 0 01-5.039-2.082zM23.111 67.574a7.21 7.21 0 01-2.084-5.041 7.19 7.19 0 012.084-5.041 7.195 7.195 0 015.052-2.084c1.864 0 3.698.76 5.03 2.084a7.202 7.202 0 012.084 5.041 7.224 7.224 0 01-2.084 5.041 7.2 7.2 0 01-5.03 2.082 7.202 7.202 0 01-5.052-2.082zM23.119 46.537a7.119 7.119 0 01-2.093-5.031c0-1.885.756-3.711 2.093-5.047a7.16 7.16 0 015.034-2.072c1.873 0 3.707.754 5.037 2.072a7.213 7.213 0 012.086 5.047 7.176 7.176 0 01-2.086 5.031 7.202 7.202 0 01-5.037 2.096 7.16 7.16 0 01-5.034-2.096zM23.111 88.607a7.19 7.19 0 01-2.073-5.041c0-1.879.75-3.711 2.073-5.039a7.177 7.177 0 015.045-2.086c1.875 0 3.714.76 5.039 2.086a7.167 7.167 0 012.088 5.039c0 1.877-.76 3.709-2.088 5.041a7.219 7.219 0 01-5.039 2.082 7.212 7.212 0 01-5.045-2.082zM2.084 67.574A7.172 7.172 0 010 62.533a7.15 7.15 0 012.084-5.041 7.191 7.191 0 015.039-2.084 7.18 7.18 0 015.037 2.084 7.186 7.186 0 012.081 5.041 7.208 7.208 0 01-2.081 5.041 7.186 7.186 0 01-5.037 2.082 7.198 7.198 0 01-5.039-2.082z"
     id="path2"
     style="fill:#ffffff" />
</svg>
