<?xml version="1.0" encoding="UTF-8" standalone="no"?>
<svg
   xmlns:dc="http://purl.org/dc/elements/1.1/"
   xmlns:cc="http://creativecommons.org/ns#"
   xmlns:rdf="http://www.w3.org/1999/02/22-rdf-syntax-ns#"
   xmlns:svg="http://www.w3.org/2000/svg"
   xmlns="http://www.w3.org/2000/svg"
   xmlns:sodipodi="http://sodipodi.sourceforge.net/DTD/sodipodi-0.dtd"
   xmlns:inkscape="http://www.inkscape.org/namespaces/inkscape"
   enable-background="new 0 0 64 64"
   height="64px"
   id="Layer_1"
   version="1.1"
   viewBox="0 0 64 64"
   width="64px"
   xml:space="preserve"
   sodipodi:docname="logo-facebook.svg"
   inkscape:version="1.0.2 (e86c870879, 2021-01-15)"><metadata
     id="metadata9"><rdf:RDF><cc:Work
         rdf:about=""><dc:format>image/svg+xml</dc:format><dc:type
           rdf:resource="http://purl.org/dc/dcmitype/StillImage" /></cc:Work></rdf:RDF></metadata><defs
     id="defs7" /><sodipodi:namedview
     pagecolor="#ffffff"
     bordercolor="#666666"
     borderopacity="1"
     objecttolerance="10"
     gridtolerance="10"
     guidetolerance="10"
     inkscape:pageopacity="0"
     inkscape:pageshadow="2"
     inkscape:window-width="1536"
     inkscape:window-height="800"
     id="namedview5"
     showgrid="false"
     inkscape:snap-object-midpoints="false"
     inkscape:snap-center="true"
     inkscape:snap-others="false"
     inkscape:zoom="10.09375"
     inkscape:cx="32"
     inkscape:cy="32"
     inkscape:window-x="0"
     inkscape:window-y="27"
     inkscape:window-maximized="1"
     inkscape:current-layer="Layer_1" /><path
     id="path21"
     style="fill:#ffffff;fill-opacity:0.998485;stroke-width:2.69651"
     d="M 32.573618,7.9798122 A 24.076,24.076 0 0 0 8.4976177,32.055812 a 24.076,24.076 0 0 0 24.0760003,24.076 24.076,24.076 0 0 0 24.076,-24.076 24.076,24.076 0 0 0 -24.076,-24.0759998 z" /><path
     d="m 32.60737,7.4299652 c -13.647094,0 -24.7499997,11.1029068 -24.7499997,24.7500008 0,13.647094 11.1029057,24.75 24.7499997,24.75 13.647094,0 24.75,-11.102906 24.75,-24.75 0,-13.647094 -11.102906,-24.7500008 -24.75,-24.7500008 z m 6.1551,25.6213258 h -4.026636 c 0,6.433245 0,14.353923 0,14.353923 h -5.966678 c 0,0 0,-7.843914 0,-14.353923 h -2.83629 v -5.072425 h 2.83629 v -3.280925 c 0,-2.349784 1.116572,-6.02151 6.02151,-6.02151 l 4.419429,0.01695 v 4.923881 c 0,0 -2.68675,0 -3.209146,0 -0.522395,0 -1.264118,0.261198 -1.264118,1.381757 v 2.980846 h 4.546041 z"
     id="path2"
     style="stroke-width:0.996939" /></svg>
