<?xml version="1.0" encoding="UTF-8" standalone="no"?>
<svg
   width="20px"
   height="16px"
   viewBox="0 0 20 16"
   version="1.1"
   id="svg14"
   sodipodi:docname="mail.svg"
   inkscape:version="1.1 (1:1.1+202105261517+ce6663b3b7)"
   xmlns:inkscape="http://www.inkscape.org/namespaces/inkscape"
   xmlns:sodipodi="http://sodipodi.sourceforge.net/DTD/sodipodi-0.dtd"
   xmlns="http://www.w3.org/2000/svg"
   xmlns:svg="http://www.w3.org/2000/svg">
  <defs
     id="defs18" />
  <sodipodi:namedview
     id="namedview16"
     pagecolor="#ffffff"
     bordercolor="#666666"
     borderopacity="1.0"
     inkscape:pageshadow="2"
     inkscape:pageopacity="0.0"
     inkscape:pagecheckerboard="0"
     showgrid="false"
     inkscape:zoom="27.753941"
     inkscape:cx="6.5756427"
     inkscape:cy="9.4941471"
     inkscape:window-width="1536"
     inkscape:window-height="800"
     inkscape:window-x="0"
     inkscape:window-y="27"
     inkscape:window-maximized="1"
     inkscape:current-layer="g8" />
  <title
     id="title2">email</title>
  <desc
     id="desc4">Created with Sketch.</desc>
  <g
     id="Icons"
     stroke="none"
     stroke-width="1"
     fill="none"
     fill-rule="evenodd">
    <g
       id="Rounded"
       transform="translate(-782.000000, -1220.000000)">
      <g
         id="Communication"
         transform="translate(100.000000, 1162.000000)">
        <g
           id="-Round-/-Communication-/-email"
           transform="translate(680.000000, 54.000000)">
          <g
             transform="translate(0.000000, 0.000000)"
             id="g8">
            <polygon
               id="Path"
               points="0 0 24 0 24 24 0 24" />
            <path
               d="M20,4 L4,4 C2.9,4 2.01,4.9 2.01,6 L2,18 C2,19.1 2.9,20 4,20 L20,20 C21.1,20 22,19.1 22,18 L22,6 C22,4.9 21.1,4 20,4 Z M19.6,8.25 L12.53,12.67 C12.21,12.87 11.79,12.87 11.47,12.67 L4.4,8.25 C4.15,8.09 4,7.82 4,7.53 C4,6.86 4.73,6.46 5.3,6.81 L12,11 L18.7,6.81 C19.27,6.46 20,6.86 20,7.53 C20,7.82 19.85,8.09 19.6,8.25 Z"
               id="🔹Icon-Color"
               fill="#1D1D1D"
               style="fill:#3db0f0;fill-opacity:1" />
          </g>
        </g>
      </g>
    </g>
  </g>
</svg>
