<?xml version="1.0" encoding="UTF-8" standalone="no"?>
<svg
   xmlns:dc="http://purl.org/dc/elements/1.1/"
   xmlns:cc="http://creativecommons.org/ns#"
   xmlns:rdf="http://www.w3.org/1999/02/22-rdf-syntax-ns#"
   xmlns:svg="http://www.w3.org/2000/svg"
   xmlns="http://www.w3.org/2000/svg"
   xmlns:sodipodi="http://sodipodi.sourceforge.net/DTD/sodipodi-0.dtd"
   xmlns:inkscape="http://www.inkscape.org/namespaces/inkscape"
   height="100%"
   style="fill-rule:evenodd;clip-rule:evenodd;stroke-linejoin:round;stroke-miterlimit:1.41421;"
   version="1.1"
   viewBox="0 0 128 128"
   width="100%"
   xml:space="preserve"
   id="svg5"
   sodipodi:docname="user_icon.svg"
   inkscape:version="1.0.2 (1.0.2+r75+1)"><metadata
     id="metadata11"><rdf:RDF><cc:Work
         rdf:about=""><dc:format>image/svg+xml</dc:format><dc:type
           rdf:resource="http://purl.org/dc/dcmitype/StillImage" /></cc:Work></rdf:RDF></metadata><defs
     id="defs9" /><sodipodi:namedview
     pagecolor="#ffffff"
     bordercolor="#666666"
     borderopacity="1"
     objecttolerance="10"
     gridtolerance="10"
     guidetolerance="10"
     inkscape:pageopacity="0"
     inkscape:pageshadow="2"
     inkscape:window-width="1536"
     inkscape:window-height="800"
     id="namedview7"
     showgrid="false"
     inkscape:zoom="2.5234375"
     inkscape:cx="170.85616"
     inkscape:cy="65.774346"
     inkscape:window-x="0"
     inkscape:window-y="27"
     inkscape:window-maximized="1"
     inkscape:current-layer="svg5" /><rect
     height="128"
     id="User"
     style="fill:none;"
     width="128"
     x="0.195"
     y="0" /><ellipse
     style="fill:#999999;stroke-width:0.879882"
     id="path19"
     cx="64.363045"
     cy="64.762596"
     rx="63.580544"
     ry="63.890778" /><path
     d="m 63.212961,63.501674 c 19.337266,0.107889 37.552799,12.828002 43.786599,32.883759 0.21196,0.680997 0.51879,1.38801 0.30607,2.029219 -0.49047,1.484422 -2.54417,1.132445 -3.18615,-0.982473 C 99.801651,83.423527 88.676908,71.415783 74.126518,67.84858 61.228121,64.686916 46.78868,67.267054 36.875194,75.832319 c -6.521507,5.634679 -11.3849,13.362087 -13.659737,21.535587 0,0 -1.097248,2.124865 -2.49597,0.988594 -1.423208,-1.156931 0.09182,-3.789866 1.086535,-6.23304 6.527628,-16.033281 21.733765,-28.298121 40.397685,-28.615664 0.336673,-0.0046 0.672581,-0.0061 1.009254,-0.0061 z m -0.08034,-44.378842 c 9.088638,0.08646 17.66997,7.058653 19.409192,16.130457 1.698668,8.859088 -3.46161,18.565214 -11.796559,22.092628 C 61.512,61.253618 49.591485,56.865393 45.125978,47.748444 40.51509,38.333846 44.873473,25.524973 54.598729,20.982185 c 2.65895,-1.241864 5.584179,-1.8693 8.533892,-1.859353 z m -0.237966,3.059898 c -7.62105,0.07269 -14.776114,5.838214 -16.360772,13.339132 -1.598431,7.567488 2.761483,15.975129 9.921138,19.005184 9.314361,3.942134 21.661074,-2.505152 23.203648,-13.05143 1.360464,-9.298293 -6.115969,-18.999063 -16.219982,-19.28753 -0.181344,-0.0038 -0.362688,-0.0054 -0.544032,-0.0054 z"
     style="fill-rule:nonzero;stroke-width:0.765166"
     id="path3" /></svg>
