<?xml version="1.0" encoding="UTF-8" standalone="no"?>
<svg
   width="20px"
   height="17px"
   viewBox="0 0 20 17"
   version="1.1"
   id="svg14"
   sodipodi:docname="home.svg"
   inkscape:version="1.1 (1:1.1+202105261517+ce6663b3b7)"
   xmlns:inkscape="http://www.inkscape.org/namespaces/inkscape"
   xmlns:sodipodi="http://sodipodi.sourceforge.net/DTD/sodipodi-0.dtd"
   xmlns="http://www.w3.org/2000/svg"
   xmlns:svg="http://www.w3.org/2000/svg">
  <defs
     id="defs18" />
  <sodipodi:namedview
     id="namedview16"
     pagecolor="#ffffff"
     bordercolor="#666666"
     borderopacity="1.0"
     inkscape:pageshadow="2"
     inkscape:pageopacity="0.0"
     inkscape:pagecheckerboard="0"
     showgrid="false"
     inkscape:zoom="36.941176"
     inkscape:cx="10.002389"
     inkscape:cy="8.513535"
     inkscape:window-width="1536"
     inkscape:window-height="800"
     inkscape:window-x="0"
     inkscape:window-y="27"
     inkscape:window-maximized="1"
     inkscape:current-layer="g8" />
  <!-- Generator: Sketch 52.5 (67469) - http://www.bohemiancoding.com/sketch -->
  <title
     id="title2">home</title>
  <desc
     id="desc4">Created with Sketch.</desc>
  <g
     id="Icons"
     stroke="none"
     stroke-width="1"
     fill="none"
     fill-rule="evenodd">
    <g
       id="Rounded"
       transform="translate(-816.000000, -289.000000)">
      <g
         id="Action"
         transform="translate(100.000000, 100.000000)">
        <g
           id="-Round-/-Action-/-home"
           transform="translate(714.000000, 186.000000)">
          <g
             transform="translate(0.000000, 0.000000)"
             id="g8">
            <polygon
               id="Path"
               points="0 0 24 0 24 24 0 24" />
            <path
               d="M10,19 L10,14 L14,14 L14,19 C14,19.55 14.45,20 15,20 L18,20 C18.55,20 19,19.55 19,19 L19,12 L20.7,12 C21.16,12 21.38,11.43 21.03,11.13 L12.67,3.6 C12.29,3.26 11.71,3.26 11.33,3.6 L2.97,11.13 C2.63,11.43 2.84,12 3.3,12 L5,12 L5,19 C5,19.55 5.45,20 6,20 L9,20 C9.55,20 10,19.55 10,19 Z"
               id="🔹Icon-Color"
               fill="#1D1D1D"
               style="fill:#3db0f0;fill-opacity:1" />
          </g>
        </g>
      </g>
    </g>
  </g>
</svg>
