<?xml version="1.0" encoding="UTF-8" standalone="no"?>
<svg
   xmlns:dc="http://purl.org/dc/elements/1.1/"
   xmlns:cc="http://creativecommons.org/ns#"
   xmlns:rdf="http://www.w3.org/1999/02/22-rdf-syntax-ns#"
   xmlns:svg="http://www.w3.org/2000/svg"
   xmlns="http://www.w3.org/2000/svg"
   xmlns:sodipodi="http://sodipodi.sourceforge.net/DTD/sodipodi-0.dtd"
   xmlns:inkscape="http://www.inkscape.org/namespaces/inkscape"
   enable-background="new 0 0 64 64"
   height="64px"
   id="Layer_1"
   version="1.1"
   viewBox="0 0 64 64"
   width="64px"
   xml:space="preserve"
   sodipodi:docname="logo-linkedin.svg"
   inkscape:version="1.0.2 (e86c870879, 2021-01-15)"><metadata
     id="metadata107"><rdf:RDF><cc:Work
         rdf:about=""><dc:format>image/svg+xml</dc:format><dc:type
           rdf:resource="http://purl.org/dc/dcmitype/StillImage" /></cc:Work></rdf:RDF></metadata><defs
     id="defs105" /><sodipodi:namedview
     pagecolor="#ffffff"
     bordercolor="#666666"
     borderopacity="1"
     objecttolerance="10"
     gridtolerance="10"
     guidetolerance="10"
     inkscape:pageopacity="0"
     inkscape:pageshadow="2"
     inkscape:window-width="1536"
     inkscape:window-height="800"
     id="namedview103"
     showgrid="false"
     inkscape:zoom="10.09375"
     inkscape:cx="32"
     inkscape:cy="32"
     inkscape:window-x="0"
     inkscape:window-y="27"
     inkscape:window-maximized="1"
     inkscape:current-layer="Layer_1" /><rect
     style="fill:#ffffff;fill-opacity:0.998485;stroke-width:2.8"
     id="rect109"
     width="30.190094"
     height="30.257187"
     x="16.864691"
     y="16.559002" /><g
     id="g100"><path
       d="M36.523,28.472c-2.124,0-3.075,1.168-3.606,1.988v-1.704h-4.002c0.052,1.128,0,12.041,0,12.041h4.002v-6.726   c0-0.36,0.025-0.72,0.131-0.976c0.29-0.72,0.948-1.465,2.054-1.465c1.448,0,2.027,1.105,2.027,2.723v6.443h4.002h0.001v-6.906   C41.132,30.193,39.157,28.472,36.523,28.472z M32.916,30.502H32.89c0.009-0.014,0.019-0.027,0.026-0.041V30.502z"
       id="path92" /><rect
       height="12.041"
       width="4.002"
       x="22.697"
       y="28.756"
       id="rect94" /><path
       d="M32,7.174C18.311,7.174,7.174,18.311,7.174,32c0,13.689,11.137,24.826,24.826,24.826c13.689,0,24.826-11.137,24.826-24.826   C56.826,18.311,45.689,7.174,32,7.174z M45.165,43.229c0,1.054-0.876,1.91-1.959,1.91H20.625c-1.08,0-1.957-0.855-1.957-1.91   V20.385c0-1.055,0.877-1.91,1.957-1.91h22.581c1.082,0,1.959,0.856,1.959,1.91V43.229z"
       id="path96" /><path
       d="M24.725,22.951c-1.368,0-2.264,0.898-2.264,2.08c0,1.155,0.869,2.08,2.211,2.08h0.026c1.396,0,2.265-0.925,2.265-2.08   C26.936,23.85,26.095,22.951,24.725,22.951z"
       id="path98" /></g></svg>
