<?xml version="1.0" encoding="UTF-8" standalone="no"?>
<!-- Generator: Adobe Illustrator 22.1.0, SVG Export Plug-In . SVG Version: 6.00 Build 0)  -->

<svg
   version="1.1"
   x="0px"
   y="0px"
   viewBox="0 0 50 50"
   style="enable-background:new 0 0 50 50;"
   xml:space="preserve"
   id="svg27"
   sodipodi:docname="news.svg"
   inkscape:version="1.1 (1:1.1+202105261517+ce6663b3b7)"
   xmlns:inkscape="http://www.inkscape.org/namespaces/inkscape"
   xmlns:sodipodi="http://sodipodi.sourceforge.net/DTD/sodipodi-0.dtd"
   xmlns="http://www.w3.org/2000/svg"
   xmlns:svg="http://www.w3.org/2000/svg"><defs
   id="defs31" /><sodipodi:namedview
   id="namedview29"
   pagecolor="#ffffff"
   bordercolor="#666666"
   borderopacity="1.0"
   inkscape:pageshadow="2"
   inkscape:pageopacity="0.0"
   inkscape:pagecheckerboard="0"
   showgrid="false"
   inkscape:zoom="12.56"
   inkscape:cx="24.960191"
   inkscape:cy="25.039809"
   inkscape:window-width="1536"
   inkscape:window-height="800"
   inkscape:window-x="0"
   inkscape:window-y="27"
   inkscape:window-maximized="1"
   inkscape:current-layer="Layer_1" />
<g
   id="Layer_1">
	<path
   d="M9,13H1v31c0,2.757,2.243,5,5,5h38c2.757,0,5-2.243,5-5V1H9V13z M3,44V15h6v29c0,1.654-1.346,3-3,3S3,45.654,3,44z M11,3   h36v41c0,1.654-1.346,3-3,3H9.998c0.03-0.039,0.051-0.084,0.079-0.124c0.057-0.081,0.107-0.166,0.159-0.251   c0.106-0.17,0.202-0.345,0.287-0.528c0.045-0.096,0.088-0.193,0.126-0.292c0.075-0.194,0.135-0.393,0.186-0.598   c0.023-0.094,0.052-0.184,0.07-0.28C10.963,44.626,11,44.318,11,44V13V3z"
   id="path2"
   style="fill:#3db0f0;fill-opacity:1" />
	<rect
   x="15"
   y="8"
   width="28"
   height="2"
   id="rect4"
   style="fill:#3db0f0;fill-opacity:1" />
	<rect
   x="19"
   y="13"
   width="20"
   height="2"
   id="rect6"
   style="fill:#3db0f0;fill-opacity:1" />
	<rect
   x="31"
   y="21"
   width="12"
   height="2"
   id="rect8"
   style="fill:#3db0f0;fill-opacity:1" />
	<rect
   x="31"
   y="26"
   width="12"
   height="2"
   id="rect10"
   style="fill:#3db0f0;fill-opacity:1" />
	<path
   d="M27,21H15v12h12V21z M25,31h-8v-8h8V31z"
   id="path12"
   style="fill:#3db0f0;fill-opacity:1" />
	<rect
   x="31"
   y="31"
   width="12"
   height="2"
   id="rect14"
   style="fill:#3db0f0;fill-opacity:1" />
	<rect
   x="15"
   y="36"
   width="12"
   height="2"
   id="rect16"
   style="fill:#3db0f0;fill-opacity:1" />
	<rect
   x="31"
   y="36"
   width="12"
   height="2"
   id="rect18"
   style="fill:#3db0f0;fill-opacity:1" />
	<rect
   x="15"
   y="41"
   width="12"
   height="2"
   id="rect20"
   style="fill:#3db0f0;fill-opacity:1" />
	<rect
   x="31"
   y="41"
   width="12"
   height="2"
   id="rect22"
   style="fill:#3db0f0;fill-opacity:1" />
</g>
<g
   id="g25">
</g>
</svg>
